<svg width="267" height="152" viewBox="0 0 267 152" fill="none" xmlns="http://www.w3.org/2000/svg">
<path d="M74.4652 66.49V68.164H71.1352V79H69.0832V68.164H65.7352V66.49H74.4652ZM78.2354 70.522C78.5354 70.018 78.9314 69.628 79.4234 69.352C79.9274 69.064 80.5214 68.92 81.2054 68.92V71.044H80.6834C79.8794 71.044 79.2674 71.248 78.8474 71.656C78.4394 72.064 78.2354 72.772 78.2354 73.78V79H76.1834V69.082H78.2354V70.522ZM91.6596 69.082L85.5756 83.662H83.4516L85.4676 78.838L81.5616 69.082H83.8476L86.6376 76.642L89.5356 69.082H91.6596ZM103.532 65.68V79H101.48V65.68H103.532ZM110.168 79.162C109.232 79.162 108.386 78.952 107.63 78.532C106.874 78.1 106.28 77.5 105.848 76.732C105.416 75.952 105.2 75.052 105.2 74.032C105.2 73.024 105.422 72.13 105.866 71.35C106.31 70.57 106.916 69.97 107.684 69.55C108.452 69.13 109.31 68.92 110.258 68.92C111.206 68.92 112.064 69.13 112.832 69.55C113.6 69.97 114.206 70.57 114.65 71.35C115.094 72.13 115.316 73.024 115.316 74.032C115.316 75.04 115.088 75.934 114.632 76.714C114.176 77.494 113.552 78.1 112.76 78.532C111.98 78.952 111.116 79.162 110.168 79.162ZM110.168 77.38C110.696 77.38 111.188 77.254 111.644 77.002C112.112 76.75 112.49 76.372 112.778 75.868C113.066 75.364 113.21 74.752 113.21 74.032C113.21 73.312 113.072 72.706 112.796 72.214C112.52 71.71 112.154 71.332 111.698 71.08C111.242 70.828 110.75 70.702 110.222 70.702C109.694 70.702 109.202 70.828 108.746 71.08C108.302 71.332 107.948 71.71 107.684 72.214C107.42 72.706 107.288 73.312 107.288 74.032C107.288 75.1 107.558 75.928 108.098 76.516C108.65 77.092 109.34 77.38 110.168 77.38ZM121.286 79.162C120.35 79.162 119.504 78.952 118.748 78.532C117.992 78.1 117.398 77.5 116.966 76.732C116.534 75.952 116.318 75.052 116.318 74.032C116.318 73.024 116.54 72.13 116.984 71.35C117.428 70.57 118.034 69.97 118.802 69.55C119.57 69.13 120.428 68.92 121.376 68.92C122.324 68.92 123.182 69.13 123.95 69.55C124.718 69.97 125.324 70.57 125.768 71.35C126.212 72.13 126.434 73.024 126.434 74.032C126.434 75.04 126.206 75.934 125.75 76.714C125.294 77.494 124.67 78.1 123.878 78.532C123.098 78.952 122.234 79.162 121.286 79.162ZM121.286 77.38C121.814 77.38 122.306 77.254 122.762 77.002C123.23 76.75 123.608 76.372 123.896 75.868C124.184 75.364 124.328 74.752 124.328 74.032C124.328 73.312 124.19 72.706 123.914 72.214C123.638 71.71 123.272 71.332 122.816 71.08C122.36 70.828 121.868 70.702 121.34 70.702C120.812 70.702 120.32 70.828 119.864 71.08C119.42 71.332 119.066 71.71 118.802 72.214C118.538 72.706 118.406 73.312 118.406 74.032C118.406 75.1 118.676 75.928 119.216 76.516C119.768 77.092 120.458 77.38 121.286 77.38ZM132.027 74.05L136.599 79H133.827L130.155 74.734V79H128.103V65.68H130.155V73.42L133.755 69.082H136.599L132.027 74.05ZM138.754 67.768C138.382 67.768 138.07 67.642 137.818 67.39C137.566 67.138 137.44 66.826 137.44 66.454C137.44 66.082 137.566 65.77 137.818 65.518C138.07 65.266 138.382 65.14 138.754 65.14C139.114 65.14 139.42 65.266 139.672 65.518C139.924 65.77 140.05 66.082 140.05 66.454C140.05 66.826 139.924 67.138 139.672 67.39C139.42 67.642 139.114 67.768 138.754 67.768ZM139.762 69.082V79H137.71V69.082H139.762ZM147.1 68.92C147.88 68.92 148.576 69.082 149.188 69.406C149.812 69.73 150.298 70.21 150.646 70.846C150.994 71.482 151.168 72.25 151.168 73.15V79H149.134V73.456C149.134 72.568 148.912 71.89 148.468 71.422C148.024 70.942 147.418 70.702 146.65 70.702C145.882 70.702 145.27 70.942 144.814 71.422C144.37 71.89 144.148 72.568 144.148 73.456V79H142.096V69.082H144.148V70.216C144.484 69.808 144.91 69.49 145.426 69.262C145.954 69.034 146.512 68.92 147.1 68.92ZM157.421 68.92C158.189 68.92 158.867 69.076 159.455 69.388C160.055 69.688 160.523 70.066 160.859 70.522V69.082H162.929V79.162C162.929 80.074 162.737 80.884 162.353 81.592C161.969 82.312 161.411 82.876 160.679 83.284C159.959 83.692 159.095 83.896 158.087 83.896C156.743 83.896 155.627 83.578 154.739 82.942C153.851 82.318 153.347 81.466 153.227 80.386H155.261C155.417 80.902 155.747 81.316 156.251 81.628C156.767 81.952 157.379 82.114 158.087 82.114C158.915 82.114 159.581 81.862 160.085 81.358C160.601 80.854 160.859 80.122 160.859 79.162V77.506C160.511 77.974 160.037 78.37 159.437 78.694C158.849 79.006 158.177 79.162 157.421 79.162C156.557 79.162 155.765 78.946 155.045 78.514C154.337 78.07 153.773 77.458 153.353 76.678C152.945 75.886 152.741 74.992 152.741 73.996C152.741 73 152.945 72.118 153.353 71.35C153.773 70.582 154.337 69.988 155.045 69.568C155.765 69.136 156.557 68.92 157.421 68.92ZM160.859 74.032C160.859 73.348 160.715 72.754 160.427 72.25C160.151 71.746 159.785 71.362 159.329 71.098C158.873 70.834 158.381 70.702 157.853 70.702C157.325 70.702 156.833 70.834 156.377 71.098C155.921 71.35 155.549 71.728 155.261 72.232C154.985 72.724 154.847 73.312 154.847 73.996C154.847 74.68 154.985 75.28 155.261 75.796C155.549 76.312 155.921 76.708 156.377 76.984C156.845 77.248 157.337 77.38 157.853 77.38C158.381 77.38 158.873 77.248 159.329 76.984C159.785 76.72 160.151 76.336 160.427 75.832C160.715 75.316 160.859 74.716 160.859 74.032ZM173.738 70.756H171.902V79H169.832V70.756H168.662V69.082H169.832V68.38C169.832 67.24 170.132 66.412 170.732 65.896C171.344 65.368 172.298 65.104 173.594 65.104V66.814C172.97 66.814 172.532 66.934 172.28 67.174C172.028 67.402 171.902 67.804 171.902 68.38V69.082H173.738V70.756ZM179.499 79.162C178.563 79.162 177.717 78.952 176.961 78.532C176.205 78.1 175.611 77.5 175.179 76.732C174.747 75.952 174.531 75.052 174.531 74.032C174.531 73.024 174.753 72.13 175.197 71.35C175.641 70.57 176.247 69.97 177.015 69.55C177.783 69.13 178.641 68.92 179.589 68.92C180.537 68.92 181.395 69.13 182.163 69.55C182.931 69.97 183.537 70.57 183.981 71.35C184.425 72.13 184.647 73.024 184.647 74.032C184.647 75.04 184.419 75.934 183.963 76.714C183.507 77.494 182.883 78.1 182.091 78.532C181.311 78.952 180.447 79.162 179.499 79.162ZM179.499 77.38C180.027 77.38 180.519 77.254 180.975 77.002C181.443 76.75 181.821 76.372 182.109 75.868C182.397 75.364 182.541 74.752 182.541 74.032C182.541 73.312 182.403 72.706 182.127 72.214C181.851 71.71 181.485 71.332 181.029 71.08C180.573 70.828 180.081 70.702 179.553 70.702C179.025 70.702 178.533 70.828 178.077 71.08C177.633 71.332 177.279 71.71 177.015 72.214C176.751 72.706 176.619 73.312 176.619 74.032C176.619 75.1 176.889 75.928 177.429 76.516C177.981 77.092 178.671 77.38 179.499 77.38ZM188.367 70.522C188.667 70.018 189.063 69.628 189.555 69.352C190.059 69.064 190.653 68.92 191.337 68.92V71.044H190.815C190.011 71.044 189.399 71.248 188.979 71.656C188.571 72.064 188.367 72.772 188.367 73.78V79H186.315V69.082H188.367V70.522ZM69.9832 103.162C69.2032 103.162 68.5012 103.024 67.8772 102.748C67.2652 102.46 66.7792 102.076 66.4192 101.596C66.0592 101.104 65.8672 100.558 65.8432 99.958H67.9672C68.0032 100.378 68.2012 100.732 68.5612 101.02C68.9332 101.296 69.3952 101.434 69.9472 101.434C70.5232 101.434 70.9672 101.326 71.2792 101.11C71.6032 100.882 71.7652 100.594 71.7652 100.246C71.7652 99.874 71.5852 99.598 71.2252 99.418C70.8772 99.238 70.3192 99.04 69.5512 98.824C68.8072 98.62 68.2012 98.422 67.7332 98.23C67.2652 98.038 66.8572 97.744 66.5092 97.348C66.1732 96.952 66.0052 96.43 66.0052 95.782C66.0052 95.254 66.1612 94.774 66.4732 94.342C66.7852 93.898 67.2292 93.55 67.8052 93.298C68.3932 93.046 69.0652 92.92 69.8212 92.92C70.9492 92.92 71.8552 93.208 72.5392 93.784C73.2352 94.348 73.6072 95.122 73.6552 96.106H71.6032C71.5672 95.662 71.3872 95.308 71.0632 95.044C70.7392 94.78 70.3012 94.648 69.7492 94.648C69.2092 94.648 68.7952 94.75 68.5072 94.954C68.2192 95.158 68.0752 95.428 68.0752 95.764C68.0752 96.028 68.1712 96.25 68.3632 96.43C68.5552 96.61 68.7892 96.754 69.0652 96.862C69.3412 96.958 69.7492 97.084 70.2892 97.24C71.0092 97.432 71.5972 97.63 72.0532 97.834C72.5212 98.026 72.9232 98.314 73.2592 98.698C73.5952 99.082 73.7692 99.592 73.7812 100.228C73.7812 100.792 73.6252 101.296 73.3132 101.74C73.0012 102.184 72.5572 102.532 71.9812 102.784C71.4172 103.036 70.7512 103.162 69.9832 103.162ZM79.9404 103.162C79.0044 103.162 78.1584 102.952 77.4024 102.532C76.6464 102.1 76.0524 101.5 75.6204 100.732C75.1884 99.952 74.9724 99.052 74.9724 98.032C74.9724 97.024 75.1944 96.13 75.6384 95.35C76.0824 94.57 76.6884 93.97 77.4564 93.55C78.2244 93.13 79.0824 92.92 80.0304 92.92C80.9784 92.92 81.8364 93.13 82.6044 93.55C83.3724 93.97 83.9784 94.57 84.4224 95.35C84.8664 96.13 85.0884 97.024 85.0884 98.032C85.0884 99.04 84.8604 99.934 84.4044 100.714C83.9484 101.494 83.3244 102.1 82.5324 102.532C81.7524 102.952 80.8884 103.162 79.9404 103.162ZM79.9404 101.38C80.4684 101.38 80.9604 101.254 81.4164 101.002C81.8844 100.75 82.2624 100.372 82.5504 99.868C82.8384 99.364 82.9824 98.752 82.9824 98.032C82.9824 97.312 82.8444 96.706 82.5684 96.214C82.2924 95.71 81.9264 95.332 81.4704 95.08C81.0144 94.828 80.5224 94.702 79.9944 94.702C79.4664 94.702 78.9744 94.828 78.5184 95.08C78.0744 95.332 77.7204 95.71 77.4564 96.214C77.1924 96.706 77.0604 97.312 77.0604 98.032C77.0604 99.1 77.3304 99.928 77.8704 100.516C78.4224 101.092 79.1124 101.38 79.9404 101.38ZM98.763 92.92C99.543 92.92 100.239 93.082 100.851 93.406C101.475 93.73 101.961 94.21 102.309 94.846C102.669 95.482 102.849 96.25 102.849 97.15V103H100.815V97.456C100.815 96.568 100.593 95.89 100.149 95.422C99.705 94.942 99.099 94.702 98.331 94.702C97.563 94.702 96.951 94.942 96.495 95.422C96.051 95.89 95.829 96.568 95.829 97.456V103H93.795V97.456C93.795 96.568 93.573 95.89 93.129 95.422C92.685 94.942 92.079 94.702 91.311 94.702C90.543 94.702 89.931 94.942 89.475 95.422C89.031 95.89 88.809 96.568 88.809 97.456V103H86.757V93.082H88.809V94.216C89.145 93.808 89.571 93.49 90.087 93.262C90.603 93.034 91.155 92.92 91.743 92.92C92.535 92.92 93.243 93.088 93.867 93.424C94.491 93.76 94.971 94.246 95.307 94.882C95.607 94.282 96.075 93.808 96.711 93.46C97.347 93.1 98.031 92.92 98.763 92.92ZM114.19 97.798C114.19 98.17 114.166 98.506 114.118 98.806H106.54C106.6 99.598 106.894 100.234 107.422 100.714C107.95 101.194 108.598 101.434 109.366 101.434C110.47 101.434 111.25 100.972 111.706 100.048H113.92C113.62 100.96 113.074 101.71 112.282 102.298C111.502 102.874 110.53 103.162 109.366 103.162C108.418 103.162 107.566 102.952 106.81 102.532C106.066 102.1 105.478 101.5 105.046 100.732C104.626 99.952 104.416 99.052 104.416 98.032C104.416 97.012 104.62 96.118 105.028 95.35C105.448 94.57 106.03 93.97 106.774 93.55C107.53 93.13 108.394 92.92 109.366 92.92C110.302 92.92 111.136 93.124 111.868 93.532C112.6 93.94 113.17 94.516 113.578 95.26C113.986 95.992 114.19 96.838 114.19 97.798ZM112.048 97.15C112.036 96.394 111.766 95.788 111.238 95.332C110.71 94.876 110.056 94.648 109.276 94.648C108.568 94.648 107.962 94.876 107.458 95.332C106.954 95.776 106.654 96.382 106.558 97.15H112.048ZM118.243 94.756V100.246C118.243 100.618 118.327 100.888 118.495 101.056C118.675 101.212 118.975 101.29 119.395 101.29H120.655V103H119.035C118.111 103 117.403 102.784 116.911 102.352C116.419 101.92 116.173 101.218 116.173 100.246V94.756H115.003V93.082H116.173V90.616H118.243V93.082H120.655V94.756H118.243ZM127.317 92.92C128.073 92.92 128.745 93.082 129.333 93.406C129.933 93.73 130.401 94.21 130.737 94.846C131.085 95.482 131.259 96.25 131.259 97.15V103H129.225V97.456C129.225 96.568 129.003 95.89 128.559 95.422C128.115 94.942 127.509 94.702 126.741 94.702C125.973 94.702 125.361 94.942 124.905 95.422C124.461 95.89 124.239 96.568 124.239 97.456V103H122.187V89.68H124.239V94.234C124.587 93.814 125.025 93.49 125.553 93.262C126.093 93.034 126.681 92.92 127.317 92.92ZM134.56 91.768C134.188 91.768 133.876 91.642 133.624 91.39C133.372 91.138 133.246 90.826 133.246 90.454C133.246 90.082 133.372 89.77 133.624 89.518C133.876 89.266 134.188 89.14 134.56 89.14C134.92 89.14 135.226 89.266 135.478 89.518C135.73 89.77 135.856 90.082 135.856 90.454C135.856 90.826 135.73 91.138 135.478 91.39C135.226 91.642 134.92 91.768 134.56 91.768ZM135.568 93.082V103H133.516V93.082H135.568ZM142.906 92.92C143.686 92.92 144.382 93.082 144.994 93.406C145.618 93.73 146.104 94.21 146.452 94.846C146.8 95.482 146.974 96.25 146.974 97.15V103H144.94V97.456C144.94 96.568 144.718 95.89 144.274 95.422C143.83 94.942 143.224 94.702 142.456 94.702C141.688 94.702 141.076 94.942 140.62 95.422C140.176 95.89 139.954 96.568 139.954 97.456V103H137.902V93.082H139.954V94.216C140.29 93.808 140.716 93.49 141.232 93.262C141.76 93.034 142.318 92.92 142.906 92.92ZM153.228 92.92C153.996 92.92 154.674 93.076 155.262 93.388C155.862 93.688 156.33 94.066 156.666 94.522V93.082H158.736V103.162C158.736 104.074 158.544 104.884 158.16 105.592C157.776 106.312 157.218 106.876 156.486 107.284C155.766 107.692 154.902 107.896 153.894 107.896C152.55 107.896 151.434 107.578 150.546 106.942C149.658 106.318 149.154 105.466 149.034 104.386H151.068C151.224 104.902 151.554 105.316 152.058 105.628C152.574 105.952 153.186 106.114 153.894 106.114C154.722 106.114 155.388 105.862 155.892 105.358C156.408 104.854 156.666 104.122 156.666 103.162V101.506C156.318 101.974 155.844 102.37 155.244 102.694C154.656 103.006 153.984 103.162 153.228 103.162C152.364 103.162 151.572 102.946 150.852 102.514C150.144 102.07 149.58 101.458 149.16 100.678C148.752 99.886 148.548 98.992 148.548 97.996C148.548 97 148.752 96.118 149.16 95.35C149.58 94.582 150.144 93.988 150.852 93.568C151.572 93.136 152.364 92.92 153.228 92.92ZM156.666 98.032C156.666 97.348 156.522 96.754 156.234 96.25C155.958 95.746 155.592 95.362 155.136 95.098C154.68 94.834 154.188 94.702 153.66 94.702C153.132 94.702 152.64 94.834 152.184 95.098C151.728 95.35 151.356 95.728 151.068 96.232C150.792 96.724 150.654 97.312 150.654 97.996C150.654 98.68 150.792 99.28 151.068 99.796C151.356 100.312 151.728 100.708 152.184 100.984C152.652 101.248 153.144 101.38 153.66 101.38C154.188 101.38 154.68 101.248 155.136 100.984C155.592 100.72 155.958 100.336 156.234 99.832C156.522 99.316 156.666 98.716 156.666 98.032ZM174.477 97.798C174.477 98.17 174.453 98.506 174.405 98.806H166.827C166.887 99.598 167.181 100.234 167.709 100.714C168.237 101.194 168.885 101.434 169.653 101.434C170.757 101.434 171.537 100.972 171.993 100.048H174.207C173.907 100.96 173.361 101.71 172.569 102.298C171.789 102.874 170.817 103.162 169.653 103.162C168.705 103.162 167.853 102.952 167.097 102.532C166.353 102.1 165.765 101.5 165.333 100.732C164.913 99.952 164.703 99.052 164.703 98.032C164.703 97.012 164.907 96.118 165.315 95.35C165.735 94.57 166.317 93.97 167.061 93.55C167.817 93.13 168.681 92.92 169.653 92.92C170.589 92.92 171.423 93.124 172.155 93.532C172.887 93.94 173.457 94.516 173.865 95.26C174.273 95.992 174.477 96.838 174.477 97.798ZM172.335 97.15C172.323 96.394 172.053 95.788 171.525 95.332C170.997 94.876 170.343 94.648 169.563 94.648C168.855 94.648 168.249 94.876 167.745 95.332C167.241 95.776 166.941 96.382 166.845 97.15H172.335ZM178.188 89.68V103H176.136V89.68H178.188ZM184.122 103.162C183.342 103.162 182.64 103.024 182.016 102.748C181.404 102.46 180.918 102.076 180.558 101.596C180.198 101.104 180.006 100.558 179.982 99.958H182.106C182.142 100.378 182.34 100.732 182.7 101.02C183.072 101.296 183.534 101.434 184.086 101.434C184.662 101.434 185.106 101.326 185.418 101.11C185.742 100.882 185.904 100.594 185.904 100.246C185.904 99.874 185.724 99.598 185.364 99.418C185.016 99.238 184.458 99.04 183.69 98.824C182.946 98.62 182.34 98.422 181.872 98.23C181.404 98.038 180.996 97.744 180.648 97.348C180.312 96.952 180.144 96.43 180.144 95.782C180.144 95.254 180.3 94.774 180.612 94.342C180.924 93.898 181.368 93.55 181.944 93.298C182.532 93.046 183.204 92.92 183.96 92.92C185.088 92.92 185.994 93.208 186.678 93.784C187.374 94.348 187.746 95.122 187.794 96.106H185.742C185.706 95.662 185.526 95.308 185.202 95.044C184.878 94.78 184.44 94.648 183.888 94.648C183.348 94.648 182.934 94.75 182.646 94.954C182.358 95.158 182.214 95.428 182.214 95.764C182.214 96.028 182.31 96.25 182.502 96.43C182.694 96.61 182.928 96.754 183.204 96.862C183.48 96.958 183.888 97.084 184.428 97.24C185.148 97.432 185.736 97.63 186.192 97.834C186.66 98.026 187.062 98.314 187.398 98.698C187.734 99.082 187.908 99.592 187.92 100.228C187.92 100.792 187.764 101.296 187.452 101.74C187.14 102.184 186.696 102.532 186.12 102.784C185.556 103.036 184.89 103.162 184.122 103.162ZM198.867 97.798C198.867 98.17 198.843 98.506 198.795 98.806H191.217C191.277 99.598 191.571 100.234 192.099 100.714C192.627 101.194 193.275 101.434 194.043 101.434C195.147 101.434 195.927 100.972 196.383 100.048H198.597C198.297 100.96 197.751 101.71 196.959 102.298C196.179 102.874 195.207 103.162 194.043 103.162C193.095 103.162 192.243 102.952 191.487 102.532C190.743 102.1 190.155 101.5 189.723 100.732C189.303 99.952 189.093 99.052 189.093 98.032C189.093 97.012 189.297 96.118 189.705 95.35C190.125 94.57 190.707 93.97 191.451 93.55C192.207 93.13 193.071 92.92 194.043 92.92C194.979 92.92 195.813 93.124 196.545 93.532C197.277 93.94 197.847 94.516 198.255 95.26C198.663 95.992 198.867 96.838 198.867 97.798ZM196.725 97.15C196.713 96.394 196.443 95.788 195.915 95.332C195.387 94.876 194.733 94.648 193.953 94.648C193.245 94.648 192.639 94.876 192.135 95.332C191.631 95.776 191.331 96.382 191.235 97.15H196.725ZM201.355 103.126C200.983 103.126 200.671 103 200.419 102.748C200.167 102.496 200.041 102.184 200.041 101.812C200.041 101.44 200.167 101.128 200.419 100.876C200.671 100.624 200.983 100.498 201.355 100.498C201.715 100.498 202.021 100.624 202.273 100.876C202.525 101.128 202.651 101.44 202.651 101.812C202.651 102.184 202.525 102.496 202.273 102.748C202.021 103 201.715 103.126 201.355 103.126ZM205.337 103.126C204.965 103.126 204.653 103 204.401 102.748C204.149 102.496 204.023 102.184 204.023 101.812C204.023 101.44 204.149 101.128 204.401 100.876C204.653 100.624 204.965 100.498 205.337 100.498C205.697 100.498 206.003 100.624 206.255 100.876C206.507 101.128 206.633 101.44 206.633 101.812C206.633 102.184 206.507 102.496 206.255 102.748C206.003 103 205.697 103.126 205.337 103.126Z" fill="#FAFAFA"/>
<path d="M53.6437 19.7179C70.8429 37.6065 42.127 53.8872 24.7727 47.6849C31.3675 53.3536 29.8436 74.9829 4.51961 74.6306C29.8554 81.9969 25.7911 105.222 15.7453 116.931C36.0048 106.405 59.3669 120.419 58.1102 138.39C66.5744 123.585 108.686 128.495 111.296 147.042C119.502 139.701 162.491 134.648 169.69 149.892C175.818 138.632 202.798 130.885 220.444 145.631C220.414 127.888 229.643 112.608 259.694 113.026C233.285 99.4207 237.201 62.8472 255.347 56.8337C233.503 61.482 217.11 39.6715 225.556 21.5604C214.968 35.5247 176.711 36.6528 167.538 17.5033C158.083 27.2767 129.683 19.9653 126.352 8.15445C127.144 17.8731 113.229 22.4583 99.9884 16.5634C96.2356 34.8775 58.8026 33.1041 53.6437 19.7179Z" stroke="#34387F" stroke-width="3" stroke-linecap="round" stroke-linejoin="round"/>
</svg>
